<svg width="132" height="25" viewBox="0 0 132 25" fill="none" xmlns="http://www.w3.org/2000/svg">
<path d="M13.5169 18.825C13.0669 19.1917 12.5586 19.5083 11.9919 19.775C11.4252 20.0417 10.8169 20.2667 10.1669 20.45C9.51689 20.6167 8.84189 20.75 8.14189 20.85C7.4419 20.9333 6.75023 20.975 6.06689 20.975H3.01689C2.73356 20.975 2.55856 20.9417 2.49189 20.875C2.44189 20.8083 2.41689 20.65 2.41689 20.4V2.775C2.41689 2.45833 2.44189 2.275 2.49189 2.225C2.55856 2.15833 2.75023 2.125 3.06689 2.125H7.3169C10.5669 2.125 12.9836 3.04167 14.5669 4.875C15.2669 5.675 15.7836 6.60833 16.1169 7.675C16.4669 8.725 16.6419 10 16.6419 11.5C16.6419 13.05 16.3669 14.4583 15.8169 15.725C15.2836 16.9917 14.5169 18.025 13.5169 18.825ZM12.4169 6.75C11.3502 5.43333 9.63356 4.775 7.2669 4.775H5.31689V18.3H6.44189C7.40856 18.3 8.3169 18.1833 9.1669 17.95C10.0169 17.7 10.7669 17.3083 11.4169 16.775C12.1669 16.2083 12.7419 15.4833 13.1419 14.6C13.5586 13.7 13.7669 12.6333 13.7669 11.4C13.7669 10.4 13.6586 9.51667 13.4419 8.75C13.2252 7.96667 12.8836 7.3 12.4169 6.75ZM59.6989 20.975C59.5656 20.975 59.4823 20.9583 59.4489 20.925C59.4156 20.875 59.3989 20.8 59.3989 20.7V7.125L53.9739 20.65C53.9406 20.7333 53.8989 20.7833 53.8489 20.8C53.8156 20.8167 53.7156 20.825 53.5489 20.825H51.5489C51.3823 20.825 51.2739 20.8167 51.2239 20.8C51.1906 20.7833 51.1573 20.7333 51.1239 20.65L45.6989 7.125V20.7C45.6989 20.8 45.6823 20.875 45.6489 20.925C45.6156 20.9583 45.5323 20.975 45.3989 20.975H43.0739C42.8739 20.975 42.7739 20.8833 42.7739 20.7V2.65C42.7739 2.41667 42.7989 2.275 42.8489 2.225C42.8989 2.15833 43.0573 2.125 43.3239 2.125H46.2989C46.4156 2.125 46.4823 2.15 46.4989 2.2C46.5323 2.23333 46.5739 2.30833 46.6239 2.425L52.5489 17.125L58.4739 2.425C58.5239 2.30833 58.5573 2.23333 58.5739 2.2C58.6073 2.15 58.6823 2.125 58.7989 2.125H61.7739C62.0406 2.125 62.1989 2.15833 62.2489 2.225C62.2989 2.275 62.3239 2.41667 62.3239 2.65V20.7C62.3239 20.8833 62.2239 20.975 62.0239 20.975H59.6989ZM85.8962 20.975C85.6962 20.975 85.5962 20.8917 85.5962 20.725V2.475C85.5962 2.24167 85.6962 2.125 85.8962 2.125H90.2212C92.1212 2.125 93.5962 2.51667 94.6462 3.3C95.7129 4.08333 96.2462 5.28333 96.2462 6.9C96.2462 7.9 96.0379 8.75833 95.6212 9.475C95.2212 10.175 94.6462 10.725 93.8962 11.125C94.3795 11.3083 94.7962 11.55 95.1462 11.85C95.5129 12.15 95.8129 12.4917 96.0462 12.875C96.2962 13.2583 96.4795 13.6667 96.5962 14.1C96.7129 14.5167 96.7712 14.9333 96.7712 15.35C96.7712 17.2333 96.1545 18.6417 94.9212 19.575C93.6879 20.5083 91.9045 20.975 89.5712 20.975H85.8962ZM88.4462 4.775V9.85H89.7962C91.1129 9.85 92.0462 9.6 92.5962 9.1C93.1462 8.58333 93.4212 7.925 93.4212 7.125C93.4212 6.425 93.1795 5.85833 92.6962 5.425C92.2129 4.99167 91.3879 4.775 90.2212 4.775H88.4462ZM88.3962 12.55V18.3H89.6212C91.2212 18.3 92.3379 18.05 92.9712 17.55C93.6212 17.0333 93.9462 16.3333 93.9462 15.45C93.9462 14.55 93.5962 13.8417 92.8962 13.325C92.1962 12.8083 91.0129 12.55 89.3462 12.55H88.3962Z" fill="#0065FF"/>
<path d="M31.006 19.05C30.406 19.8 29.6893 20.375 28.856 20.775C28.0226 21.1583 27.081 21.35 26.031 21.35C24.9643 21.35 24.0226 21.1583 23.206 20.775C22.3893 20.3917 21.706 19.8667 21.156 19.2C20.606 18.5333 20.1893 17.7583 19.906 16.875C19.6393 15.9917 19.506 15.05 19.506 14.05C19.506 13.05 19.6393 12.1083 19.906 11.225C20.1893 10.3417 20.606 9.575 21.156 8.925C21.706 8.25833 22.381 7.73333 23.181 7.35C23.9976 6.96667 24.9476 6.775 26.031 6.775C27.0976 6.775 28.0393 6.96667 28.856 7.35C29.6726 7.73333 30.356 8.25833 30.906 8.925C31.456 9.575 31.8643 10.3417 32.131 11.225C32.4143 12.1083 32.556 13.05 32.556 14.05C32.556 15.0333 32.4226 15.9583 32.156 16.825C31.8893 17.675 31.506 18.4167 31.006 19.05ZM26.031 9.225C25.381 9.225 24.8143 9.36667 24.331 9.65C23.8643 9.93333 23.481 10.3083 23.181 10.775C22.881 11.225 22.656 11.7417 22.506 12.325C22.356 12.8917 22.281 13.4667 22.281 14.05C22.281 14.6333 22.356 15.2167 22.506 15.8C22.656 16.3667 22.881 16.8833 23.181 17.35C23.481 17.8167 23.8643 18.1917 24.331 18.475C24.8143 18.7583 25.381 18.9 26.031 18.9C26.681 18.9 27.2393 18.7583 27.706 18.475C28.1893 18.1917 28.581 17.8167 28.881 17.35C29.181 16.8833 29.406 16.3667 29.556 15.8C29.706 15.2167 29.781 14.6333 29.781 14.05C29.781 13.4833 29.706 12.9167 29.556 12.35C29.406 11.7667 29.181 11.25 28.881 10.8C28.581 10.3333 28.1893 9.95833 27.706 9.675C27.2393 9.375 26.681 9.225 26.031 9.225ZM71.2677 21.5C70.8343 22.7167 70.326 23.575 69.7427 24.075C69.1593 24.575 68.4093 24.825 67.4927 24.825C67.1593 24.825 66.8427 24.8083 66.5427 24.775C66.2427 24.7417 65.9927 24.675 65.7927 24.575C65.7093 24.5417 65.6427 24.4917 65.5927 24.425C65.5427 24.375 65.526 24.3 65.5427 24.2L65.6927 22.55C65.6927 22.3333 65.7843 22.2583 65.9677 22.325C66.2177 22.3917 66.451 22.4333 66.6677 22.45C66.8843 22.4833 67.0843 22.5 67.2677 22.5C67.551 22.5 67.776 22.4583 67.9427 22.375C68.1093 22.2917 68.2427 22.1833 68.3427 22.05C68.3927 21.95 68.4593 21.8083 68.5427 21.625C68.6427 21.4417 68.7427 21.2333 68.8427 21C68.9427 20.7833 69.0343 20.55 69.1177 20.3C69.2177 20.0333 69.301 19.775 69.3677 19.525L65.0927 7.4C65.0093 7.2 65.076 7.1 65.2927 7.1H67.6177C67.7843 7.1 67.8843 7.14167 67.9177 7.225L70.6927 15.5L73.5177 7.225C73.551 7.14167 73.651 7.1 73.8177 7.1H76.1427C76.3593 7.1 76.426 7.2 76.3427 7.4L71.2677 21.5ZM111.132 14.675C111.132 14.8083 111.091 14.9083 111.007 14.975C110.941 15.0417 110.866 15.075 110.782 15.075H102.557C102.641 16.1917 102.991 17.1083 103.607 17.825C104.224 18.525 105.066 18.875 106.132 18.875C106.682 18.875 107.307 18.8083 108.007 18.675C108.707 18.525 109.349 18.275 109.932 17.925C110.049 17.8583 110.124 17.8667 110.157 17.95C110.191 18.0333 110.207 18.1417 110.207 18.275V20C110.207 20.15 110.182 20.2667 110.132 20.35C110.082 20.4333 109.982 20.5167 109.832 20.6C109.332 20.8667 108.741 21.0583 108.057 21.175C107.391 21.2917 106.707 21.35 106.007 21.35C103.941 21.35 102.374 20.7333 101.307 19.5C100.257 18.25 99.7323 16.425 99.7323 14.025C99.7323 13.125 99.849 12.2417 100.082 11.375C100.316 10.5083 100.666 9.73333 101.132 9.05C101.616 8.36667 102.224 7.81667 102.957 7.4C103.691 6.98333 104.557 6.775 105.557 6.775C106.574 6.775 107.432 6.96667 108.132 7.35C108.849 7.73333 109.432 8.25 109.882 8.9C110.332 9.55 110.657 10.3083 110.857 11.175C111.057 12.0417 111.157 12.9667 111.157 13.95C111.157 14.0667 111.149 14.2 111.132 14.35C111.132 14.5 111.132 14.6083 111.132 14.675ZM105.657 9.175C105.207 9.175 104.807 9.275 104.457 9.475C104.107 9.675 103.807 9.93333 103.557 10.25C103.307 10.5667 103.099 10.9333 102.932 11.35C102.782 11.7667 102.674 12.1833 102.607 12.6H108.332C108.332 12.2667 108.274 11.9 108.157 11.5C108.057 11.1 107.899 10.7333 107.682 10.4C107.466 10.05 107.191 9.75833 106.857 9.525C106.524 9.29167 106.124 9.175 105.657 9.175ZM120.33 20.45C119.43 21.05 118.364 21.35 117.13 21.35C116.797 21.35 116.447 21.3333 116.08 21.3C115.714 21.2667 115.355 21.225 115.005 21.175C114.672 21.125 114.372 21.0667 114.105 21C113.839 20.9333 113.63 20.8667 113.48 20.8C113.414 20.7667 113.339 20.725 113.255 20.675C113.189 20.6083 113.164 20.5083 113.18 20.375L113.33 18.75C113.347 18.5833 113.372 18.4833 113.405 18.45C113.439 18.4167 113.547 18.425 113.73 18.475C114.28 18.6417 114.847 18.7667 115.43 18.85C116.03 18.9167 116.564 18.95 117.03 18.95C117.764 18.95 118.305 18.7667 118.655 18.4C119.022 18.0333 119.205 17.6083 119.205 17.125C119.205 16.8583 119.114 16.5917 118.93 16.325C118.747 16.0417 118.439 15.7583 118.005 15.475C117.555 15.2083 117.089 14.9417 116.605 14.675C116.122 14.3917 115.647 14.1167 115.18 13.85C114.647 13.5333 114.197 13.1167 113.83 12.6C113.48 12.0667 113.305 11.4833 113.305 10.85C113.305 10.15 113.43 9.55 113.68 9.05C113.93 8.53333 114.264 8.10833 114.68 7.775C115.097 7.425 115.572 7.175 116.105 7.025C116.655 6.85833 117.23 6.775 117.83 6.775C118.147 6.775 118.472 6.79167 118.805 6.825C119.155 6.85833 119.489 6.90833 119.805 6.975C120.139 7.025 120.43 7.09167 120.68 7.175C120.947 7.24167 121.147 7.31667 121.28 7.4C121.364 7.45 121.405 7.5 121.405 7.55C121.422 7.58333 121.422 7.64167 121.405 7.725L121.255 9.325C121.239 9.50833 121.197 9.61667 121.13 9.65C121.064 9.66667 120.939 9.65833 120.755 9.625C120.439 9.50833 120.08 9.4 119.68 9.3C119.447 9.26667 119.197 9.23333 118.93 9.2C118.68 9.16667 118.364 9.15 117.98 9.15C117.297 9.15 116.814 9.30833 116.53 9.625C116.247 9.94167 116.105 10.325 116.105 10.775C116.105 11.0417 116.264 11.325 116.58 11.625C116.897 11.925 117.297 12.2 117.78 12.45C118.297 12.7 118.772 12.9583 119.205 13.225C119.655 13.4917 119.989 13.7083 120.205 13.875C120.805 14.3083 121.255 14.7833 121.555 15.3C121.855 15.8 122.005 16.4083 122.005 17.125C122.005 18.525 121.447 19.6333 120.33 20.45ZM131.626 20.75C131.393 20.9 131.018 21.0333 130.501 21.15C130.001 21.2833 129.459 21.35 128.876 21.35C128.176 21.35 127.618 21.2083 127.201 20.925C126.784 20.625 126.476 20.2833 126.276 19.9C126.043 19.4667 125.901 18.9583 125.851 18.375C125.801 17.7917 125.776 17 125.776 16V9.725H123.701C123.618 9.725 123.543 9.7 123.476 9.65C123.426 9.58333 123.401 9.50833 123.401 9.425V7.45C123.401 7.36667 123.426 7.3 123.476 7.25C123.543 7.18333 123.618 7.15 123.701 7.15H125.776V3.65C125.776 3.56667 125.809 3.5 125.876 3.45C125.943 3.38333 126.018 3.35 126.101 3.35H128.126C128.226 3.35 128.301 3.38333 128.351 3.45C128.418 3.5 128.451 3.56667 128.451 3.65V7.15H130.851C130.934 7.15 131.001 7.18333 131.051 7.25C131.118 7.3 131.151 7.36667 131.151 7.45V9.425C131.151 9.50833 131.118 9.58333 131.051 9.65C131.001 9.7 130.934 9.725 130.851 9.725H128.451V16.175C128.451 17.3083 128.476 18.025 128.526 18.325C128.593 18.625 128.751 18.8083 129.001 18.875C129.251 18.9417 129.534 18.9583 129.851 18.925C130.068 18.8917 130.309 18.85 130.576 18.8C130.843 18.7333 131.076 18.6583 131.276 18.575C131.359 18.5417 131.418 18.5417 131.451 18.575C131.484 18.5917 131.518 18.6667 131.551 18.8L131.751 20.45C131.768 20.5667 131.726 20.6667 131.626 20.75Z" fill="black"/>
</svg>
