<svg width="240" height="240" viewBox="0 0 240 240" fill="none" xmlns="http://www.w3.org/2000/svg">
<path d="M103.08 0.0154892C100.898 5.82614 98.2909 11.4682 95.28 16.8959C92.8691 19.7497 90.2339 22.4061 87.3996 24.8399C80.5068 30.7475 72.7692 35.6015 65.5956 41.0879C59.9688 45.4487 54.5556 50.3711 51.6756 56.8427C50.9948 58.4146 50.5216 60.0685 50.268 61.7627C49.2544 62.8718 48.3147 64.0463 47.4552 65.2787C45.6586 67.8862 44.4799 70.869 44.0088 74.0003C42.432 73.8319 40.9276 73.2499 39.648 72.3131C40.0888 73.0801 40.6972 73.7375 41.4278 74.2362C42.1585 74.7349 42.9924 75.062 43.8672 75.1931C43.6005 78.0431 44.1882 80.908 45.5556 83.4227C45.0379 80.731 45.3066 77.9472 46.3296 75.4043H46.68C47.558 75.3377 48.4288 75.1964 49.2828 74.9819C48.6621 77.2276 48.5656 79.5858 49.0008 81.8747C48.3284 81.6595 47.6706 81.4009 47.0316 81.1007C47.6796 81.5528 48.3616 81.954 49.0716 82.3007C49.5836 84.8107 50.6663 87.1691 52.236 89.1935C51.3279 87.2487 50.8027 85.1473 50.6892 83.0039C54.4164 84.4103 58.074 84.2699 62.4348 83.2151C69.2532 81.5999 74.3172 75.4151 78.396 69.2951C85.1809 59.13 90.842 48.2583 95.28 36.8711C95.7012 35.7455 96.1944 34.5503 96.6156 33.3539C101.619 25.2246 105.655 16.538 108.641 7.47109C110.538 8.14313 112.118 9.4969 113.072 11.2691L118.98 9.15829C117.417 6.32793 115.109 3.97955 112.306 2.36783C109.503 0.756111 106.312 -0.0574128 103.08 0.0154892ZM57.72 63.2471C55.2834 65.1182 53.1691 67.3752 51.4608 69.9287C51.39 68.8739 51.3192 67.8887 51.2496 66.8339C51.4608 66.5519 51.7416 66.2711 51.9528 65.9939C55.962 61.2815 61.1664 57.8339 66.4416 54.7391C68.6928 53.4035 70.9428 52.2071 73.194 50.8715C71.6472 52.4891 70.0992 54.1115 68.6928 55.8647C65.1036 58.3199 61.2348 60.5039 57.72 63.2471ZM61.518 64.2311C59.2941 66.666 56.8187 68.8586 54.1332 70.7723C53.9928 70.8431 53.922 70.9127 53.7816 70.9835C54.7097 69.6797 55.7982 68.498 57.0216 67.4663C58.4208 66.3419 59.9688 65.2859 61.5156 64.2311H61.518ZM56.1 53.0483C60.4608 48.0539 66.1584 44.4671 71.5032 40.4579C79.5202 34.4798 86.8558 27.6388 93.378 20.0579C92.9556 20.6915 92.604 21.3947 92.178 22.0271C84.4452 34.1999 73.1916 43.6931 61.6572 52.2743C58.3373 54.6066 55.166 57.1435 52.1616 59.8703C52.377 59.1291 52.6354 58.401 52.9356 57.6899C53.7507 55.9922 54.8175 54.4273 56.1 53.0483ZM46.8864 73.8671C47.8168 71.8594 48.9477 69.9509 50.262 68.1707C50.4024 69.1547 50.544 70.1399 50.7552 71.1239C50.3984 71.7657 50.0697 72.4227 49.77 73.0931C48.886 73.4487 47.9663 73.7082 47.0268 73.8671H46.8864ZM87.3288 48.4799C84.6431 54.6004 81.442 60.4816 77.76 66.0599C74.3136 71.4755 70.0932 77.5955 64.5372 80.1971C60.1803 82.257 55.3003 82.9442 50.544 82.1675C50.4775 79.6463 50.9076 77.1366 51.81 74.7815C52.2312 75.9815 52.65 77.1731 53.1456 78.2987C52.7123 76.9136 52.3601 75.5044 52.0908 74.0783C52.174 73.9201 52.2447 73.7556 52.302 73.5863C52.9356 73.2347 53.6388 72.8123 54.2712 72.4607C57.8035 70.0311 61.1003 67.2758 64.1184 64.2311C65.736 62.7539 67.284 61.2779 68.9016 59.8007C76.8023 55.2398 83.8669 49.3643 89.7912 42.4271C88.9464 44.4671 88.1736 46.5071 87.3288 48.4799ZM125.662 16.2623C127.297 14.6004 129.141 13.1583 131.148 11.9723C132.977 18.0215 134.173 24.5627 132.485 30.6815C130.937 36.4487 127.069 41.1611 123.974 46.2959C122.839 48.0355 121.962 49.9309 121.372 51.9227C120.799 53.9456 121.025 56.1113 122.004 57.9719C121.55 55.7356 121.925 53.4105 123.06 51.4307C124.155 49.489 125.426 47.6524 126.858 45.9443C132.625 38.2067 136.283 28.5707 135.157 19.0055C134.998 15.8564 133.727 12.8659 131.57 10.5659C128.76 11.1983 126.787 13.5191 125.662 16.2623Z" fill="black"/>
<path d="M215.903 135.904C218.857 131.683 218.435 125.142 214.426 121.976C212.621 120.685 210.512 119.885 208.306 119.656C206.013 119.324 203.676 119.492 201.454 120.147C199.232 120.803 197.179 121.931 195.433 123.454C193.718 125.018 192.502 127.054 191.939 129.306C191.376 131.559 191.491 133.927 192.269 136.115C195.997 145.399 211.049 142.8 215.903 135.904Z" fill="#FFD340"/>
<path d="M85.8516 240C70.026 236.273 54.5532 232.474 38.5164 229.59C63.2748 217.422 87.8916 205.11 112.579 192.734C115.885 194.845 119.332 195.829 123.06 197.166C136.634 192.102 148.873 186.475 161.956 180.286C168.848 187.108 174.196 194.206 181.156 201.034C185.587 198.784 189.103 196.814 193.535 194.634C204.648 203.634 215.902 213.906 226.452 223.542C215.198 227.34 204.155 231.49 192.901 235.288C183.854 231.743 174.541 228.921 165.049 226.847C138.112 232.68 115.885 235.92 85.8516 240Z" fill="#14D29B"/>
<path d="M136.986 204.27C132.625 205.888 124.818 212.64 124.115 212.64C118.558 212.64 94.8552 212.71 92.604 212.287C88.32 214.468 70.8708 220.517 66.72 222C68.97 222.634 81.0684 224.743 84.5148 226.501C85.4988 226.994 81.7008 232.128 81.7008 232.199C84.0216 231.917 114.196 225.446 121.722 224.039C122.636 223.898 127.63 227.134 129.882 227.696C133.751 225.516 155.624 215.246 158.579 214.262C159.212 214.051 167.3 217.778 171.169 218.693C177.148 216.372 182.704 212.926 188.612 210.253C184.04 208.424 179.612 206.455 175.178 204.275L136.986 204.27Z" fill="#008C6E"/>
<path d="M127.21 174.025C116.94 172.337 114.338 171.145 109.766 167.065C105.194 162.985 100.06 158.274 93.9408 158.766C91.9716 158.906 90.072 159.606 88.1028 159.606C83.8824 159.606 80.436 156.511 77.2008 153.91C70.1676 148.212 61.5864 143.782 52.5828 144.203C43.5792 144.624 34.5072 151.378 33.8736 160.38C33.4524 166.147 25.2228 168.961 20.0184 171.564C14.7534 174.06 9.20251 175.903 3.48961 177.049C11.5776 176.98 93.5184 174.517 127.21 174.025Z" fill="#9778FF"/>
<path d="M104.914 171.142C101.256 169.453 98.0904 167.062 94.4328 165.304C92.2886 164.228 89.9374 163.628 87.54 163.546C85.163 163.532 82.7884 163.696 80.436 164.038C78.4833 164.353 76.4987 164.424 74.5284 164.249C72.9267 164.019 71.3643 163.569 69.8856 162.912C67.2277 161.513 64.7081 159.866 62.3604 157.992C59.9462 156.035 57.1396 154.62 54.1308 153.842C50.2957 153.156 46.3415 153.828 42.948 155.742C39.642 157.571 34.9992 162.142 33.03 162.916C30.8496 167.065 24.3084 169.387 19.95 171.568C14.6852 174.064 9.13421 175.907 3.4212 177.053C10.596 176.983 75.5856 175.013 113.848 174.173C110.759 173.525 107.759 172.507 104.914 171.142Z" fill="#643CFF"/>
<path d="M236.581 147.368C230.903 146.222 225.59 143.71 221.101 140.048C216.952 136.808 211.606 133.718 206.821 135.758C204.852 136.598 203.093 138.22 200.912 138.149C197.044 137.939 196.06 132.804 194.302 129.427C190.996 123.168 182.414 121.48 175.733 123.8C169.051 126.121 163.986 131.398 159.064 136.462C158.993 133.367 155.898 131.046 152.803 130.904C149.708 130.763 146.825 132.312 144.362 134.07C139.861 137.234 135.923 141.174 131.422 144.409C126.92 147.644 123.824 148.489 116.088 149.473C159.282 149.549 194.942 149.549 236.581 147.368Z" fill="#9778FF"/>
<path d="M218.856 140.827C216.259 139.261 213.219 138.594 210.205 138.928C207.392 139.279 204.719 140.476 201.906 140.897C200.03 141.322 198.071 141.175 196.279 140.476C194.517 139.499 193.076 138.033 192.13 136.255C190.873 133.925 189.312 131.772 187.487 129.854C185.57 127.971 183.331 126.447 180.876 125.353C179.219 124.604 177.468 124.083 175.67 123.805C168.989 126.127 163.925 131.402 159.001 136.466C158.93 133.372 155.836 131.051 152.741 130.909C149.646 130.768 146.762 132.317 144.301 134.075C139.8 137.239 135.86 141.179 131.359 144.414C126.858 147.649 123.763 148.494 116.026 149.478C157.595 149.549 192.199 149.549 231.869 147.649C227.297 146.102 223.217 143.219 218.856 140.827Z" fill="#643CFF"/>
<path d="M175.108 28.7123L172.646 48.5471H180.172L182.563 32.5799L175.108 28.7123Z" fill="black"/>
<path d="M198.389 25.6176C191.918 28.5708 184.252 25.6176 177.288 27.0948C176.587 27.1639 175.935 27.4895 175.459 28.0092C174.545 29.2092 175.741 30.9624 177.007 31.7364C178.273 32.5104 179.887 33.1428 180.383 34.6164C180.946 36.3048 179.468 38.0628 177.781 38.556C176.049 38.8821 174.263 38.7854 172.576 38.274C164.416 36.516 155.344 35.8824 148.24 40.314C153.655 40.8768 156.047 45.87 159.071 50.3724C162.095 54.8748 165.542 59.8668 170.818 60.9924C171.451 61.2071 172.136 61.221 172.778 61.0322C173.42 60.8434 173.988 60.4611 174.404 59.9376C174.756 59.304 176.093 53.256 176.233 53.256H176.304C182.071 54.0288 187.487 58.2492 193.254 57.2652C196.633 47.055 198.366 36.3723 198.389 25.6176Z" fill="#14D29B"/>
<path d="M176.233 53.1888H176.304C176.656 53.2596 178.976 53.8224 179.257 53.892C179.891 50.094 180.594 45.4524 181.438 41.724C182.563 36.5892 182.986 31.8072 184.463 26.7432C182.043 26.5716 179.611 26.6896 177.218 27.0948C176.517 27.1636 175.866 27.4893 175.39 28.0092C174.475 29.2092 175.67 30.9624 176.936 31.7364C178.202 32.5104 179.816 33.1428 180.313 34.6164C180.476 35.1196 180.476 35.6611 180.313 36.1644C179.891 37.8516 178.906 40.5252 178.484 42.2124C177.851 44.6784 176.16 53.118 176.233 53.1888Z" fill="#008C6E"/>
<path d="M186.924 88.08C187.452 88.2191 187.996 88.2901 188.542 88.2912C188.82 88.28 189.092 88.2042 189.337 88.0699C189.581 87.9356 189.791 87.7464 189.949 87.5172C190.301 87.0252 191.567 87.588 191.848 87.0252C192.059 86.5332 191.144 85.6188 191.425 85.548C191.848 85.4076 192.265 85.1964 192.625 85.056C192.695 84.9852 192.836 84.9852 192.906 84.9144C193.048 84.774 192.977 84.5628 192.906 84.4224C192.835 84.282 192.695 84.1416 192.625 84C192.414 83.4384 193.048 82.3824 193.048 81.8196C192.977 81.1164 192.062 81.0468 191.429 80.6952C190.979 80.3964 190.479 80.1817 189.953 80.0616C189.572 80.004 189.182 80.0526 188.827 80.202C186.858 80.6244 184.958 81.3276 182.989 81.75C181.707 81.9245 180.468 82.3311 179.332 82.95C179.02 83.1937 178.787 83.5239 178.662 83.8993C178.537 84.2748 178.525 84.6788 178.628 85.0608C180.313 87.372 184.32 87.5124 186.924 88.08Z" fill="#E28A42"/>
<path d="M167.506 206.748L198.722 17.7228L201.151 18.1236L169.934 207.149L167.506 206.748Z" fill="black"/>
<path d="M183.689 84.9804C184.779 84.4137 185.756 83.6505 186.569 82.7292C187.243 81.8213 188.173 81.1356 189.24 80.76C190.08 80.4792 192.054 79.8456 191.772 78.5796C190.154 78.8616 187.764 79.5648 186.356 79.6344C185.036 79.6227 183.719 79.5051 182.418 79.2828C181.101 79.0725 179.751 79.2688 178.549 79.8456C177.143 80.6856 176.651 81.2532 177.072 82.8708C177.57 84.84 181.508 85.9656 183.689 84.9804Z" fill="#F2BF8C"/>
<path d="M147.607 114.522C141.742 118.954 134.928 121.964 127.702 123.313C119.402 124.861 110.47 124.087 103.222 119.726C99.7752 117.686 96.8916 114.874 93.5856 112.552C90.2796 110.23 86.4108 108.472 82.4016 108.754C91.132 105.86 100.068 103.626 109.133 102.072C120.738 100.243 133.048 99.6804 143.668 104.675C145.778 105.659 147.888 106.996 148.802 109.036C149.788 111.216 149.506 113.114 147.607 114.522Z" fill="black"/>
<path d="M123.27 48.48C129.53 47.9172 135.51 50.8008 141.136 53.6844C144.161 55.2324 147.185 56.7096 149.998 58.4676C155.278 61.7076 159.985 65.7876 165.05 69.2988C170.116 72.81 175.741 75.9108 181.86 76.7544C181.686 79.5362 180.91 82.2471 179.586 84.7C178.263 87.1529 176.423 89.2895 174.193 90.9624C170.536 89.7624 166.808 88.29 163.153 87.0936C160.41 86.1792 157.597 85.3356 154.924 84.2136C139.8 78.0168 127.772 64.1616 123.27 48.48Z" fill="#FDB849"/>
<path d="M121.301 46.08C133.61 52.692 141.066 66.3372 142.684 80.1924C144.301 94.0476 140.714 108.116 135.017 120.847C133.68 114.798 134.594 108.328 134.946 102.138C135.445 92.6971 133.96 83.2564 130.585 74.4252C128.756 69.642 126.365 65.0652 124.537 60.288C122.71 55.5108 120.949 51.2196 121.301 46.08Z" fill="#FFD340"/>
<path d="M187.698 82.5192C187.252 82.7897 186.829 83.0954 186.432 83.4336C186.292 83.574 185.94 83.9256 186.01 84.1368C186.15 84.4884 186.924 84.4176 187.21 84.4176C188.586 84.383 189.944 84.0984 191.219 83.5776C191.895 83.3287 192.499 82.9164 192.977 82.3776C193.066 82.2712 193.125 82.1428 193.147 82.0059C193.17 81.869 193.155 81.7285 193.105 81.5992C193.055 81.4698 192.971 81.3564 192.861 81.2706C192.752 81.1848 192.622 81.1299 192.485 81.1116C192.184 81.042 191.871 81.042 191.57 81.1116C190.2 81.3241 188.885 81.8023 187.698 82.5192Z" fill="#F2BF8C"/>
<path d="M189.738 84C188.618 83.9807 187.509 84.2218 186.498 84.7044C186.216 84.8448 185.935 85.1256 186.076 85.4076C186.108 85.4722 186.159 85.5263 186.221 85.5637C186.283 85.601 186.355 85.6201 186.427 85.6188C187.474 85.9474 188.575 86.0669 189.667 85.9704C190.448 85.95 191.225 85.8556 191.988 85.6884C192.41 85.548 193.606 84.9852 192.973 84.4224C192.512 84.1992 192.008 84.0792 191.496 84.0708C190.912 84.0132 190.325 83.9896 189.738 84Z" fill="#F2BF8C"/>
<path d="M186.572 85.9656C186.292 86.0352 186.01 86.2464 186.01 86.5284C186.025 86.6325 186.065 86.7314 186.126 86.817C186.187 86.9026 186.268 86.9723 186.361 87.0204C187.218 87.507 188.191 87.7502 189.175 87.7236C189.878 87.7944 193.184 87.5832 191.425 86.2464C189.889 85.593 188.174 85.4938 186.572 85.9656Z" fill="#F2BF8C"/>
<path d="M189.527 87.3012C188.74 87.1373 187.93 87.1137 187.135 87.2316C186.924 87.2316 186.643 87.372 186.643 87.5832C186.643 87.6528 186.713 87.7236 186.784 87.7944C187.193 88.0749 187.644 88.2883 188.12 88.4268C188.766 88.6323 189.423 88.7966 190.09 88.9188C190.582 89.0604 191.356 88.9896 191.144 88.2864C191.004 87.7944 190.019 87.4428 189.527 87.3012Z" fill="#F2BF8C"/>
<path d="M147.396 92.5764C143.808 82.8 143.668 81.4632 137.62 74.2164C138.74 71.4372 139.382 68.4883 139.518 65.4948C139.524 64.1369 139.238 62.7936 138.678 61.5564C138.127 60.5956 137.385 59.758 136.498 59.0952C133.543 56.6328 129.956 55.0152 126.862 52.764C123.767 50.5128 121.094 46.8564 121.164 43.0584C119.054 42.2184 116.592 39.33 114.412 39.8184C113.779 43.4748 111.532 49.806 108.364 51.7752C105.338 53.6736 101.26 54.6552 99.7824 57.8952C98.376 61.0608 100.063 64.6476 101.963 67.5312C104.423 71.2815 107.175 74.8329 110.191 78.1524C114.412 82.7231 119.406 87.5771 119.335 93.7668C125.596 98.2679 129.745 98.6195 131.995 106.007C138.218 102.958 143.529 98.3266 147.396 92.5764Z" fill="white"/>
<path d="M134.314 179.723C135.931 186.827 138.112 194.003 137.478 201.175C138.153 201.789 138.998 202.184 139.901 202.31C140.805 202.435 141.725 202.285 142.542 201.878L143.176 187.882C143.316 185.138 143.387 182.395 143.527 179.722L134.314 179.723Z" fill="#E28A42"/>
<path d="M137.057 192.102C137.583 195.096 137.724 198.145 137.478 201.175C138.153 201.789 138.998 202.184 139.901 202.31C140.805 202.435 141.725 202.285 142.542 201.878L143.035 189.922C141.178 190.976 139.157 191.713 137.057 192.102Z" fill="black"/>
<path d="M101.04 179.723H90C89.6484 189.359 90.9144 199.276 92.1804 208.841C93.9132 209.373 95.7754 209.298 97.4604 208.631C96.8481 201.64 97.2984 194.597 98.796 187.741C99.3287 185.013 100.079 182.331 101.04 179.723Z" fill="#F2BF8C"/>
<path d="M97.668 194.212C95.5615 195.559 93.033 196.085 90.564 195.689C90.991 200.086 91.5308 204.471 92.1828 208.841C93.9156 209.373 95.7777 209.298 97.4628 208.631C97.038 203.83 97.1068 198.998 97.668 194.212Z" fill="black"/>
<path d="M133.188 183.098C136.985 183.125 140.768 182.652 144.442 181.692C145.188 171.649 146.574 161.665 148.591 151.799C149.431 147.509 150.491 143.288 151.123 138.998C153.797 122.399 151.897 105.238 146.693 89.1984C142.004 93.8955 136.402 97.5817 130.234 100.03C130.078 111.533 131.02 123.025 133.048 134.35C134.004 138.458 134.546 142.652 134.665 146.869C134.525 153.27 132.203 159.39 131.5 165.72C130.867 171.704 130.937 177.472 133.188 183.098Z" fill="#D70A32"/>
<path d="M100.411 184.364C96.7536 185.564 93.0972 184.153 89.4396 182.958C87.2607 176.634 87.1866 169.775 89.2284 163.405C91.4088 156.722 95.91 150.955 97.95 144.205C98.9603 140.181 99.6889 136.091 100.13 131.965C102.592 115.858 109.626 100.877 116.588 86.106C117.978 86.7094 119.446 87.1134 120.949 87.306C128.947 87.2875 136.87 85.7587 144.301 82.8C146.195 85.946 147.528 89.3974 148.24 93C143.839 97.9642 138.856 102.38 133.399 106.152C130.466 123.746 123.054 140.29 111.876 154.19C107.796 159.185 106.32 165.59 104.42 171.634C103.08 175.854 101.326 180.074 100.411 184.364Z" fill="#FF465A"/>
<path d="M119.683 8.59559C118.853 6.32817 117.478 4.29949 115.68 2.68799C114.139 2.7365 112.667 3.33551 111.53 4.37639C110.404 5.41436 109.661 6.80198 109.421 8.31479C111.042 9.17605 112.439 10.4043 113.501 11.9016C114.085 10.7976 114.986 9.89318 116.087 9.30418C117.188 8.71519 118.441 8.46846 119.683 8.59559Z" fill="#D70A32"/>
<path d="M119.12 49.4616C120.444 49.4932 121.754 49.178 122.918 48.5472C121.783 46.8893 121.171 44.9295 121.16 42.9204C119.051 42.0804 116.588 39.192 114.408 39.6804C113.949 41.901 113.265 44.0693 112.368 46.152C113.187 47.159 114.215 47.9764 115.381 48.5477C116.547 49.1191 117.823 49.4309 119.12 49.4616Z" fill="#F2BF8C"/>
<path d="M119.332 46.2251C120.147 46.5021 121.002 46.6448 121.864 46.6475C121.388 45.5121 121.149 44.2917 121.16 43.0607C119.051 42.2207 116.588 39.3323 114.408 39.8207C114.268 40.5239 114.056 41.3675 113.845 42.2819C115.327 44.0224 117.21 45.3758 119.332 46.2251Z" fill="black"/>
<path d="M102.733 50.5199C98.1612 51.9263 94.9248 55.8647 91.9716 59.5931C87.4704 65.2895 82.9716 70.9871 79.662 77.4575C85.6949 81.4784 92.3147 84.5396 99.2856 86.5319C100.139 86.0333 100.879 85.3634 101.46 84.5643C102.042 83.7652 102.451 82.8543 102.662 81.8891C100.271 80.8343 98.934 78.6491 97.2468 76.6847C95.5596 74.7203 93.24 72.8123 90.564 73.0235C93.9408 69.7835 96.9648 66.7631 100.06 63.2471C101.676 61.6756 102.904 59.7491 103.646 57.6203C104.28 55.5803 103.08 52.6259 102.733 50.5199ZM131.219 36.5891C127.702 45.4523 118.277 45.4523 113.002 39.6143C109.484 35.7455 108.082 33.0731 108.36 28.2899C108.43 27.0239 107.938 25.7579 108.007 24.4211C108.289 18.7247 108.149 12.6047 114.197 9.93234C119.402 7.68114 128.545 6.90834 131.717 12.8867C133.968 17.1071 134.179 23.0867 133.475 27.6575C133.065 30.7108 132.308 33.7074 131.219 36.5891Z" fill="#F2BF8C"/>
<path d="M108.36 28.29L108.57 28.0788C109.234 27.3583 109.802 26.5543 110.258 25.6872C110.84 24.5461 111.29 23.3428 111.6 22.1004C112.655 18.7247 114.413 13.8707 118.985 14.3639C120.629 14.6229 122.22 15.1452 123.697 15.9107C125.242 16.7551 127.035 17.0291 128.761 16.6847C129.332 16.4993 129.876 16.239 130.379 15.9107C130.989 15.6012 131.577 15.2488 132.138 14.8559C132.251 14.8026 132.35 14.7256 132.431 14.6303C132.511 14.5349 132.57 14.4234 132.603 14.3033C132.636 14.1832 132.644 14.0574 132.624 13.9343C132.604 13.8112 132.559 13.6938 132.49 13.5899C131.926 12.4164 131.137 11.365 130.169 10.4951C129.297 9.73744 128.296 9.14204 127.214 8.73715C124.919 7.90771 122.469 7.59548 120.04 7.82275C117.963 7.97262 115.922 8.44718 113.992 9.22915C107.872 11.9015 107.309 18.3731 107.032 24.0696C107.16 25.3356 108.43 27.024 108.36 28.29Z" fill="black"/>
<path d="M114.338 24.5628C114.991 24.1775 115.723 23.9456 116.478 23.8845C117.234 23.8234 117.993 23.9347 118.699 24.21C119.397 24.4986 120.015 24.9489 120.504 25.5237C120.993 26.0985 121.339 26.7814 121.512 27.516C120.258 27.7983 118.945 27.6499 117.785 27.0948C116.414 26.6042 115.216 25.7242 114.338 24.5628ZM125.944 27.7272C126.226 27.0305 126.665 26.4083 127.227 25.9088C127.789 25.4094 128.459 25.0461 129.184 24.8472C129.915 24.6681 130.678 24.664 131.412 24.8352C132.145 25.0064 132.827 25.348 133.404 25.8324C132.568 26.811 131.427 27.4797 130.164 27.7308C128.789 28.157 127.318 28.1557 125.944 27.7272Z" fill="white"/>
<path d="M119.824 24.84C119.49 24.5628 119.109 24.3481 118.699 24.2064C117.993 23.9324 117.234 23.8218 116.478 23.8829C115.723 23.944 114.992 24.1752 114.338 24.5592C115.216 25.7206 116.414 26.6006 117.785 27.0912C118.082 27.2068 118.388 27.3006 118.699 27.372C118.985 26.4911 119.362 25.6425 119.824 24.84ZM130.867 24.7728C130.327 24.7246 129.783 24.7484 129.25 24.8436C128.515 25.0214 127.835 25.3771 127.27 25.8793C126.705 26.3815 126.272 27.0148 126.01 27.7236C127.408 28.1534 128.903 28.1534 130.301 27.7236C130.572 27.673 130.834 27.5782 131.075 27.4428C130.829 26.5754 130.758 25.6677 130.867 24.7728Z" fill="black"/>
<path d="M125.662 35.8164C125.563 36.3036 125.344 36.7583 125.024 37.1391C124.705 37.52 124.295 37.8148 123.833 37.9968C122.814 38.2295 121.747 38.1053 120.809 37.6452C119.349 36.87 118.113 35.7313 117.222 34.3392C119.899 35.4238 122.776 35.9273 125.662 35.8164Z" fill="#E28A42"/>
<path d="M116.87 34.2C118.519 34.482 120.197 34.5525 121.864 34.41C122.541 34.3285 123.222 34.2817 123.904 34.2696C124.584 34.2592 125.257 34.4037 125.873 34.692C126.134 34.7942 126.353 34.982 126.493 35.2246C126.634 35.4671 126.688 35.7502 126.647 36.0276C124.981 36.4336 123.248 36.4806 121.562 36.1655C119.876 35.8504 118.277 35.1804 116.87 34.2Z" fill="black"/>
<path d="M108.007 23.9292C107.748 23.4961 107.375 23.1424 106.928 22.9067C106.482 22.671 105.979 22.5623 105.475 22.5924C105.208 22.6602 104.957 22.7828 104.739 22.9523C104.521 23.1219 104.341 23.3348 104.209 23.5776C104.019 24.0496 103.9 24.5476 103.858 25.0548C103.782 26.4868 104.071 27.9146 104.698 29.2044C104.947 29.8207 105.331 30.3734 105.822 30.822C106.343 31.3498 107.051 31.6515 107.792 31.662C108.08 31.6836 108.368 31.6354 108.632 31.5216C111.173 30.33 109.063 25.3356 108.007 23.9292Z" fill="#F2BF8C"/>
<path d="M105.686 24C106.437 24.5406 107.062 25.2363 107.52 26.04C108.263 27.2652 108.607 28.6908 108.505 30.12C108.162 29.733 107.739 29.4252 107.266 29.2179C106.792 29.0107 106.279 28.9091 105.762 28.92C106.049 28.7157 106.289 28.4517 106.465 28.146C106.733 27.6519 106.832 27.0838 106.746 26.5284C106.567 25.6227 106.207 24.7627 105.686 24ZM125.17 32.7912C124.435 30.5489 124.219 28.1692 124.537 25.8312C123.66 27.8061 122.885 29.8247 122.215 31.8792C122.608 32.2424 123.078 32.5129 123.589 32.6708C124.1 32.8286 124.64 32.8697 125.17 32.7912Z" fill="#E28A42"/>
<path d="M114.338 22.1712C114.965 21.7395 115.691 21.4732 116.448 21.3972C116.879 21.3988 117.306 21.4701 117.714 21.6084C118.699 21.8196 119.683 22.1004 120.668 22.3824C120.983 22.4969 121.318 22.5447 121.652 22.5228C122.426 22.452 122.918 21.7488 123.341 21.186C123.481 20.9748 123.623 20.694 123.763 20.4828C121.521 19.8406 119.202 19.5091 116.87 19.4976C116.627 19.4684 116.38 19.518 116.167 19.6392C115.97 19.7662 115.801 19.9339 115.674 20.1312C115.157 20.7612 114.709 21.4452 114.338 22.1712ZM134.102 22.1712C133.676 21.764 133.136 21.4943 132.554 21.3972C132.238 21.4002 131.926 21.4723 131.64 21.6084C130.937 21.8196 130.234 22.1004 129.53 22.3824C129.319 22.452 129.038 22.5924 128.827 22.5228C128.264 22.452 127.913 21.7488 127.561 21.186C127.421 20.9748 127.35 20.694 127.21 20.4828C128.823 19.8453 130.539 19.5113 132.274 19.4976C132.472 19.4764 132.672 19.5266 132.836 19.6392C132.992 19.7723 133.112 19.9412 133.188 20.1312C133.532 20.7929 133.837 21.474 134.102 22.1712Z" fill="black"/>
<path d="M110.258 43.4124C117.925 47.9844 122.426 56.4924 124.889 65.0052C127.21 73.0236 128.129 81.7452 125.803 89.7636C122.849 99.8208 115.111 107.91 106.39 113.677C101.256 117.054 95.5584 119.938 91.4784 124.51C91.62 122.329 89.58 120.5 87.6804 119.515C84.5856 117.898 80.9988 117.054 78.2556 114.874C76.9287 113.818 75.8364 112.497 75.0486 110.995C74.2608 109.493 73.7947 107.844 73.68 106.152C73.3992 101.232 76.1424 96.5856 79.4484 92.928C82.7544 89.2704 86.7684 86.2464 89.928 82.4484C99.4272 71.0544 100.13 54.24 110.258 43.4124Z" fill="#FFD340"/>
<path d="M124.889 65.076C122.638 57.2688 118.699 49.4616 112.158 44.748C115.134 49.3515 116.811 54.674 117.011 60.1524C117.102 62.2688 116.985 64.3891 116.659 66.4824C117.99 67.9564 119.103 69.6132 119.965 71.4024C122.603 77.0361 123.949 83.1879 123.904 89.4084C123.905 91.6507 123.693 93.888 123.27 96.09C124.33 94.0972 125.179 91.999 125.803 89.8296C128.124 81.7452 127.21 73.0932 124.889 65.076Z" fill="#FDB849"/>
<path d="M97.95 119.656L97.458 119.023C99.5676 117.406 101.819 115.928 103.999 114.451C108.947 111.343 113.547 107.711 117.72 103.62C120.457 100.927 122.424 97.5511 123.418 93.8424C123.904 91.2662 123.925 88.6236 123.48 86.04C122.639 79.8011 120.66 73.7696 117.642 68.2452L118.346 67.824C121.43 73.4264 123.433 79.5578 124.254 85.8996C124.697 88.5799 124.673 91.3167 124.183 93.9888C123.191 97.8473 121.146 101.354 118.276 104.117C114.077 108.272 109.43 111.949 104.42 115.08C102.311 116.561 100.06 118.038 97.95 119.656Z" fill="black"/>
<path d="M107.656 100.877C101.232 103.011 94.2836 102.961 87.8916 100.735C88.5252 99.4692 89.3688 98.3448 90.0024 97.0776C95.9512 98.1465 102.056 97.9791 107.938 96.5856C108.057 98.022 107.962 99.4682 107.656 100.877Z" fill="#FDB849"/>
<path d="M107.586 82.3776L112.866 84.6996C113.429 84.9096 114.066 85.332 113.992 85.9656C113.921 86.3868 113.498 86.7384 113.498 87.1656C113.498 87.5928 113.78 87.9396 113.71 88.2912C113.64 88.9236 112.795 89.2056 112.51 89.838C112.298 90.3312 112.579 91.038 112.158 91.386C111.94 91.5517 111.704 91.6933 111.455 91.8084C111.032 92.0184 110.821 92.4408 110.47 92.7228C110.006 93.0234 109.487 93.228 108.944 93.3244C108.4 93.4209 107.842 93.4073 107.304 93.2844C106.374 93.1482 105.457 92.9367 104.561 92.652C105.852 91.8204 107.414 91.5195 108.922 91.812C108.008 91.6008 107.094 91.3188 106.18 91.1784C105.863 91.127 105.556 91.0325 105.265 90.8976C104.999 90.7245 104.761 90.5107 104.561 90.264C104.098 89.5863 103.833 88.793 103.796 87.973C103.758 87.1531 103.951 86.339 104.351 85.6224C104.985 84.1737 106.139 83.0157 107.586 82.3776Z" fill="#F2BF8C"/>
<path d="M112.016 47.1396C110.75 44.9592 107.797 44.1864 105.335 44.8188C102.936 45.6072 100.747 46.9301 98.934 48.6876C90.8353 56.0729 84.0147 64.7477 78.7488 74.3604C77.8675 75.5805 77.4668 77.0826 77.6232 78.5796C77.9747 79.7159 78.661 80.7197 79.5924 81.4596C86.0341 87.4147 94.2213 91.1386 102.943 92.0808C104.711 91.1687 106.141 89.7145 107.023 87.9312C108.078 86.0551 108.792 84.0071 109.133 81.882C105.439 78.8465 101.151 76.6183 96.5436 75.3408C99.7836 72.4608 103.014 69.3624 106.038 66.3408C108.712 63.6672 111.384 60.7836 112.79 57.2676C113.499 55.6448 113.799 53.8729 113.664 52.1072C113.529 50.3415 112.964 48.6359 112.016 47.1396Z" fill="#FDB849"/>
<path d="M133.399 205.254L133.61 205.676C134.032 206.38 135.157 206.731 135.791 207.083C136.828 207.608 137.913 208.032 139.031 208.349C141.447 209.146 143.914 209.781 146.416 210.248C148.946 210.692 151.517 210.856 154.082 210.74C156.137 210.704 158.184 210.492 160.202 210.107C160.344 209.686 160.554 209.267 160.696 208.841C160.982 208.768 161.263 208.674 161.536 208.56C160.762 203.988 155.98 203.988 153.658 203.356C150.83 201.926 148.104 200.304 145.498 198.502C145.709 197.377 145.92 196.181 146.06 195.055C146.131 194.563 146.131 193.931 145.849 193.72C145.783 193.66 145.705 193.617 145.619 193.593C145.534 193.568 145.445 193.563 145.357 193.578C144.901 193.544 144.444 193.617 144.02 193.789C143.388 194.071 142.754 194.282 142.122 194.563C141.463 194.776 140.861 195.137 140.363 195.618C140.082 195.9 139.871 196.245 139.749 196.624C139.627 197.003 139.596 197.405 139.66 197.798C138.535 196.598 137.41 195.337 136.284 194.141C135.999 194.844 135.787 195.575 135.65 196.321C135.581 197.095 135.932 198.01 136.49 198.08C135.529 199.745 134.146 201.128 132.481 202.09C132.341 202.159 132.199 202.23 132.199 202.441C132.188 202.563 132.213 202.685 132.27 202.793C132.456 203.688 132.842 204.529 133.399 205.254Z" fill="#643CFF"/>
<path d="M147.536 209.826C149.258 210.117 150.996 210.305 152.741 210.389C154.571 210.448 156.403 210.401 158.227 210.248C158.93 210.178 159.564 210.107 160.267 210.037C160.401 209.625 160.565 209.224 160.759 208.837H160.83C155.977 209.119 151.194 209.119 146.341 209.26C145.848 209.271 145.354 209.248 144.864 209.19C145.723 209.517 146.622 209.731 147.536 209.826Z" fill="white"/>
<path d="M147.888 209.545C146.072 209.337 144.266 209.057 142.472 208.705C140.878 208.405 139.304 208.004 137.76 207.505C136.187 206.929 134.698 206.149 133.328 205.184V205.254C132.635 206.001 131.798 206.599 130.867 207.013C130.959 208.722 131.315 210.406 131.922 212.006C133.605 212.589 135.353 212.967 137.126 213.132C138.836 213.153 140.51 212.637 141.91 211.655C142.306 211.43 142.755 211.312 143.211 211.312C143.667 211.312 144.116 211.43 144.512 211.655C145.33 212.064 146.088 212.584 146.762 213.202C150.349 216.082 155.344 213.484 159.353 211.795C159.716 211.278 159.999 210.709 160.193 210.107C159.607 210.142 159.02 210.142 158.435 210.107C154.992 210.037 151.405 209.966 147.888 209.545ZM144.653 203.425L144.23 202.722C145.776 201.88 147.046 200.61 147.888 199.064L148.591 199.487C147.654 201.128 146.294 202.488 144.653 203.425ZM148.38 204.551L147.748 203.988C148.733 202.833 149.605 201.584 150.349 200.261L151.054 200.682C150.31 202.067 149.413 203.365 148.38 204.551ZM141.487 201.808L141.136 201.034C142.799 200.368 144.29 199.334 145.496 198.01L146.13 198.502C144.89 199.982 143.292 201.12 141.487 201.808Z" fill="black"/>
<path d="M86.8368 211.021C86.766 211.021 86.766 211.092 86.8368 211.021C86.8368 211.232 86.9772 211.303 87.048 211.514C87.5942 212.284 88.3178 212.912 89.1576 213.343C90.1332 214.023 91.1691 214.611 92.2524 215.101C94.5408 216.21 96.9169 217.127 99.3564 217.844C101.758 218.551 104.239 218.955 106.741 219.044C108.713 219.15 110.691 219.08 112.65 218.834C112.845 218.377 113.01 217.906 113.142 217.427C113.353 217.357 113.705 217.286 113.982 217.216C113.348 211.936 108.702 211.519 106.526 210.605C105.401 210.113 100.9 206.244 98.7192 204.415C99.0037 203.115 99.2148 201.8 99.3516 200.477C99.4713 199.929 99.3966 199.357 99.1404 198.858C99.088 198.796 99.0236 198.746 98.9512 198.71C98.8789 198.674 98.7999 198.653 98.7192 198.648C98.2935 198.55 97.8472 198.6 97.4532 198.788C96.8196 199 96.186 199.28 95.5536 199.492C94.9031 199.678 94.3181 200.044 93.8652 200.546C93.5716 200.878 93.3561 201.272 93.2344 201.698C93.1128 202.124 93.088 202.572 93.162 203.009C92.1072 201.532 91.0524 199.984 89.9976 198.506C89.6389 199.282 89.4242 200.116 89.364 200.969C89.2932 201.883 89.5752 202.938 90.138 203.078C89.2228 204.851 87.8353 206.336 86.1288 207.37C85.9884 207.439 85.8468 207.51 85.8468 207.721V208.073C85.9736 209.112 86.3105 210.116 86.8368 211.021Z" fill="#9778FF"/>
<path d="M100.271 218.125C101.947 218.68 103.664 219.103 105.406 219.391C107.116 219.497 108.83 219.497 110.54 219.391C111.263 219.306 111.959 219.067 112.58 218.688C112.722 218.267 112.932 217.774 113.074 217.352C113.074 217.352 109.627 218.83 97.0368 216.438C98.0699 217.083 99.1511 217.647 100.271 218.125Z" fill="white"/>
<path d="M101.326 217.985C99.6384 217.422 97.176 216.227 95.4876 215.664C93.9486 215.182 92.4446 214.595 90.9864 213.906C89.4601 213.139 88.0606 212.143 86.8368 210.952V211.021C86.1964 211.812 85.3765 212.439 84.4452 212.85C84.5074 214.821 84.7892 216.779 85.2852 218.688C86.863 219.48 88.5436 220.048 90.2784 220.376C91.9297 220.553 93.5868 220.101 94.92 219.11C95.3144 218.886 95.7673 218.787 96.2192 218.824C96.6712 218.862 97.1013 219.035 97.4532 219.322C98.2625 219.88 98.9955 220.542 99.6336 221.291C103.009 224.878 107.933 222.276 111.802 220.657C112.165 220.089 112.448 219.474 112.642 218.828C112.201 218.928 111.755 218.998 111.305 219.04C109.605 219.285 107.885 219.356 106.171 219.251C104.521 218.978 102.899 218.555 101.326 217.985ZM97.7388 209.76L97.2468 209.057C98.7161 208.116 99.9639 206.868 100.904 205.399L101.608 205.892C100.615 207.448 99.2948 208.768 97.7388 209.76ZM101.326 211.374L100.622 210.811C101.627 209.543 102.499 208.176 103.225 206.731L103.999 207.154C103.284 208.665 102.386 210.082 101.326 211.374ZM94.7844 207.72L94.4328 206.946C96.1285 206.308 97.614 205.212 98.724 203.78L99.4272 204.274C98.2041 205.805 96.6043 206.993 94.7844 207.72ZM125.24 15.2784C124.374 13.6988 123.144 12.3484 121.652 11.3388C121.02 10.9176 118.348 10.0728 117.572 10.776C112.93 15.1368 111.523 22.176 108.148 27.5868C104.842 33.0024 100.552 37.8552 98.3712 43.8336C97.6127 45.7105 97.2303 47.7181 97.2456 49.7424C97.5398 51.8555 98.5295 53.8104 100.058 55.2984C96.4716 49.3908 101.184 41.8644 104.978 36.3084C106.526 34.0572 108.218 32.1588 109.831 29.9784C114.052 24.4212 116.443 18.5136 120.523 12.1836C122.208 13.0323 123.791 14.0706 125.24 15.2784Z" fill="black"/>
</svg>
